<?xml version="1.0" standalone="no"?>
<!DOCTYPE svg PUBLIC "-//W3C//DTD SVG 20010904//EN"
 "http://www.w3.org/TR/2001/REC-SVG-20010904/DTD/svg10.dtd">
<svg version="1.0" xmlns="http://www.w3.org/2000/svg"
 width="165.000000pt" height="150.000000pt" viewBox="0 0 165.000000 150.000000"
 preserveAspectRatio="xMidYMid meet">
<metadata>
Created by potrace 1.10, written by Peter Selinger 2001-2011
</metadata>
<g transform="translate(0.000000,150.000000) scale(0.100000,-0.100000)"
fill="#15158e" stroke="none">
<path d="M676 1348 c-68 -13 -181 -67 -242 -116 -86 -68 -141 -148 -195 -282
-18 -44 -20 -305 -3 -341 7 -13 27 -55 45 -94 41 -87 157 -207 239 -247 120
-59 168 -68 380 -70 l164 -1 0 52 1 51 -155 0 c-232 0 -342 35 -449 141 -188
188 -186 490 3 674 162 158 399 186 581 70 48 -31 145 -122 145 -136 0 -4 6
-14 13 -21 19 -20 45 -81 62 -148 12 -45 15 -103 14 -213 l-1 -152 52 -3 52
-3 -4 198 c-5 222 -12 257 -75 360 -53 86 -80 117 -145 169 -133 104 -309 146
-482 112z m244 -39 c25 -5 82 -28 127 -50 137 -68 251 -212 282 -359 15 -65
11 -329 -4 -333 -6 -1 -12 61 -15 163 -5 133 -10 176 -27 222 -83 223 -332
377 -550 338 -77 -13 -87 -16 -163 -53 -99 -48 -196 -149 -242 -250 -26 -57
-47 -175 -43 -240 7 -104 48 -210 114 -295 57 -73 189 -155 286 -177 17 -4 93
-9 170 -12 149 -4 170 -7 160 -23 -8 -14 -221 -13 -304 1 -97 16 -219 78 -289
147 -118 115 -161 219 -162 383 0 161 42 274 140 377 43 45 147 122 166 122 3
0 20 7 37 15 72 33 225 45 317 24z"/>
<path d="M730 1140 c-74 -13 -136 -46 -193 -102 -62 -61 -89 -114 -106 -209
-22 -114 21 -231 116 -320 26 -25 71 -56 98 -69 45 -22 65 -25 200 -27 83 -2
189 -4 238 -6 l87 -2 0 210 c0 219 -8 268 -52 351 -67 124 -238 200 -388 174z
m215 -66 c54 -25 123 -92 151 -145 25 -49 33 -113 35 -286 2 -131 -1 -176 -11
-188 -11 -14 -36 -15 -184 -12 -94 3 -188 7 -209 11 -108 19 -219 124 -247
236 -6 25 -14 55 -17 67 -6 27 23 149 44 182 53 82 154 155 228 164 70 8 157
-4 210 -29z"/>
<path d="M710 1064 c-136 -50 -210 -150 -212 -289 -1 -114 60 -210 170 -266
43 -23 56 -24 223 -24 166 0 179 1 193 20 12 16 15 52 16 172 0 170 -11 219
-68 291 -70 88 -221 133 -322 96z m192 -43 c52 -23 96 -62 128 -116 21 -34 25
-55 27 -145 2 -58 4 -138 6 -179 l3 -73 -166 4 c-188 5 -226 17 -291 85 -58
60 -73 98 -73 178 0 112 56 200 154 244 60 26 154 27 212 2z"/>
<path d="M720 916 c-47 -31 -58 -46 -74 -97 -10 -37 -10 -51 2 -88 16 -46 54
-91 78 -91 8 0 14 -4 14 -9 0 -5 51 -9 113 -10 l112 -2 -7 113 c-3 62 -7 113
-7 114 -1 0 -11 12 -23 26 -61 69 -144 86 -208 44z m163 -50 c19 -18 37 -48
41 -66 10 -52 7 -125 -6 -138 -15 -15 -122 -15 -168 1 -86 30 -105 141 -36
204 30 28 43 33 86 33 43 0 54 -4 83 -34z"/>
<path d="M1278 355 l4 -55 -56 0 -56 0 0 -53 0 -53 55 0 55 0 0 53 0 53 50 0
50 0 0 54 0 54 -53 1 -54 0 5 -54z m65 0 c1 -5 -6 -11 -15 -13 -11 -2 -18 3
-18 13 0 17 30 18 33 0z m-103 -110 c0 -8 -7 -15 -15 -15 -8 0 -15 7 -15 15 0
8 7 15 15 15 8 0 15 -7 15 -15z"/>
<path d="M1380 143 l0 -53 55 0 55 0 0 53 0 52 -55 0 -55 0 0 -52z m70 2 c0
-8 -7 -15 -15 -15 -8 0 -15 7 -15 15 0 8 7 15 15 15 8 0 15 -7 15 -15z"/>
</g>
</svg>
